<?xml version="1.0" encoding="UTF-8" standalone="no"?>
<!-- Created with Inkscape (http://www.inkscape.org/) -->

<svg
   width="26.881369mm"
   height="26.881363mm"
   viewBox="0 0 26.881369 26.881363"
   version="1.1"
   id="svg1"
   xml:space="preserve"
   sodipodi:docname="icon.svg"
   inkscape:version="1.4.3 (0d15f75042, 2025-12-25)"
   xmlns:inkscape="http://www.inkscape.org/namespaces/inkscape"
   xmlns:sodipodi="http://sodipodi.sourceforge.net/DTD/sodipodi-0.dtd"
   xmlns="http://www.w3.org/2000/svg"
   xmlns:svg="http://www.w3.org/2000/svg"><sodipodi:namedview
     id="namedview1"
     pagecolor="#ffffff"
     bordercolor="#000000"
     borderopacity="0.25"
     inkscape:showpageshadow="2"
     inkscape:pageopacity="0.0"
     inkscape:pagecheckerboard="0"
     inkscape:deskcolor="#d1d1d1"
     inkscape:document-units="mm"
     inkscape:zoom="11.545406"
     inkscape:cx="50.799426"
     inkscape:cy="50.799426"
     inkscape:window-width="2560"
     inkscape:window-height="1408"
     inkscape:window-x="0"
     inkscape:window-y="0"
     inkscape:window-maximized="0"
     inkscape:current-layer="g15" /><defs
     id="defs1" /><g
     id="layer1"
     transform="translate(-136.4135,-108.66271)"><g
       id="g17"
       transform="translate(110.82407,9.488975)"><g
         id="g15"
         transform="matrix(1.5339337,0,0,1.5339337,-21.058039,-60.544055)"
         style="stroke-width:1.00004322;stroke-dasharray:none"><rect
           style="stroke-width:1.00004322;stroke-dasharray:none;fill:#fdfcf0;stroke:none;stroke-linecap:round;stroke-linejoin:round;stroke-opacity:1;fill-opacity:1"
           id="rect1"
           width="18.166876"
           height="18.136995"
           x="30.305777"
           y="104.06325" /><g
           id="g1"
           transform="matrix(0.88630557,0,0,0.88630557,4.4537057,12.834427)"><path
             style="fill:none;stroke:#111827;stroke-width:1.00004;stroke-linecap:round;stroke-linejoin:round;stroke-dasharray:none;stroke-opacity:1"
             d="m 39.17131,108.84941 c 0,0 0.07649,-1.75379 -3.010383,-2.88473 -3.385328,-1.24029 -3.463857,-0.9725 -3.463857,-0.9725 v 13.62596 c 0,0 0.01096,2.13067 2.087055,2.14168 l 8.238951,0.0437 c 0,0 1.912223,-0.1639 1.912223,-2.15261 0,-1.98871 -1.912223,-2.07613 -1.912223,-2.07613 l -3.868155,-0.0109 z"
             id="path14-7-5-1" /><path
             style="fill:none;stroke:#111827;stroke-width:1.00004;stroke-linecap:round;stroke-linejoin:round;stroke-dasharray:none;stroke-opacity:1"
             d="m 34.783644,107.80345 v 10.78626 h 7.81927"
             id="path15-0-6-2" /><path
             style="fill:none;stroke:#111827;stroke-width:1.00004;stroke-linecap:round;stroke-linejoin:round;stroke-dasharray:none;stroke-opacity:1"
             d="m 39.177125,108.84074 c 0,0 -0.209231,-1.85288 3.17175,-2.87621 l 3.27738,-0.99198 0.02186,10.60788"
             id="path16-9-2-9" /></g></g></g></g></svg>
